<?xml version="1.0" encoding="UTF-8" standalone="no"?>
<!-- Created with Inkscape (http://www.inkscape.org/) -->

<svg
   xmlns:dc="http://purl.org/dc/elements/1.1/"
   xmlns:cc="http://creativecommons.org/ns#"
   xmlns:rdf="http://www.w3.org/1999/02/22-rdf-syntax-ns#"
   xmlns:svg="http://www.w3.org/2000/svg"
   xmlns="http://www.w3.org/2000/svg"
   xmlns:xlink="http://www.w3.org/1999/xlink"
   xmlns:sodipodi="http://sodipodi.sourceforge.net/DTD/sodipodi-0.dtd"
   xmlns:inkscape="http://www.inkscape.org/namespaces/inkscape"
   width="210mm"
   height="297mm"
   id="svg3926"
   version="1.1"
   inkscape:version="0.48.4 r9939"
   sodipodi:docname="Etiketten.svg"
   inkscape:export-filename="/home/micha/stopandgo/tiptoi/tiptoi-geschenke/grafik/Etiketten2.png"
   inkscape:export-xdpi="600"
   inkscape:export-ydpi="600">
  <defs
     id="defs3">
    <linearGradient
       inkscape:collect="always"
       xlink:href="#linearGradient3913"
       id="linearGradient10040"
       gradientUnits="userSpaceOnUse"
       gradientTransform="matrix(1.2113826,0,0,1.2113826,50.924815,-23.427003)"
       x1="-41.968559"
       y1="-89.795029"
       x2="-41.968559"
       y2="-79.063492" />
    <linearGradient
       id="linearGradient3913">
      <stop
         style="stop-color:#ffffff;stop-opacity:1;"
         offset="0"
         id="stop3915" />
      <stop
         style="stop-color:#eaeaea;stop-opacity:1;"
         offset="1"
         id="stop3917" />
    </linearGradient>
    <radialGradient
       xlink:href="#linearGradient5210"
       r="17.9035"
       id="radialGradient5224"
       gradientUnits="userSpaceOnUse"
       gradientTransform="matrix(1,0,0,1.32182,0,-61.01893)"
       cy="186.39458"
       cx="220.25337" />
    <radialGradient
       xlink:href="#linearGradient5210"
       r="23.88696"
       id="radialGradient5216"
       gradientUnits="userSpaceOnUse"
       gradientTransform="matrix(0.65125,0.88807,-0.63122,0.46289,123.06645,57.25682)"
       cy="165.373"
       cx="38.47637" />
    <radialGradient
       xlink:href="#linearGradient5047"
       r="95.45"
       id="radialGradient5161"
       gradientUnits="userSpaceOnUse"
       gradientTransform="matrix(1.36854,-0.05082,0.04748,1.2784,-382.09977,-489.6547)"
       cy="543.31659"
       cx="350.76874" />
    <radialGradient
       xlink:href="#linearGradient5047"
       r="53.95"
       id="radialGradient5158"
       gradientUnits="userSpaceOnUse"
       gradientTransform="matrix(1.17039,0.01311,-0.01032,0.92124,-285.76432,-312.70989)"
       cy="428.7785"
       cx="364.97919" />
    <radialGradient
       r="50.8723"
       id="radialGradient5206"
       gradientUnits="userSpaceOnUse"
       gradientTransform="matrix(1.49743,0.96491,-0.6999,1.08616,-43.93021,-141.67766)"
       cy="41.50872"
       cx="145.94565">
      <stop
         id="stop4827"
         stop-color="#fff"
         offset="0" />
      <stop
         id="stop4829"
         stop-color="#eaeaea"
         offset=".6544" />
      <stop
         id="stop4831"
         stop-color="#fff"
         offset="1" />
    </radialGradient>
    <radialGradient
       r="49.5"
       id="radialGradient5198"
       gradientUnits="userSpaceOnUse"
       gradientTransform="matrix(0.17301,0.92097,-1.2316,0.23136,176.83508,-113.60172)"
       cy="20.12039"
       cx="158.64598">
      <stop
         id="stop4822"
         stop-color="#f95252"
         offset="0" />
      <stop
         id="stop4824"
         stop-color="#d40000"
         offset="1" />
    </radialGradient>
    <linearGradient
       y2="157.59264"
       y1="143.09264"
       xlink:href="#linearGradient5164"
       x2="117.64958"
       x1="91.4137"
       id="linearGradient5178"
       gradientUnits="userSpaceOnUse" />
    <linearGradient
       y2="158.02937"
       y1="134.52937"
       xlink:href="#linearGradient5164"
       x2="169.73769"
       x1="160.83546"
       id="linearGradient5172"
       gradientUnits="userSpaceOnUse" />
    <linearGradient
       y2="131.15686"
       y1="152.65686"
       x2="134.98618"
       x1="112.31681"
       id="linearGradient5188"
       gradientUnits="userSpaceOnUse">
      <stop
         id="stop4813"
         stop-color="#c83737"
         offset="0" />
      <stop
         id="stop4815"
         stop-color="#e77c7c"
         offset=".5" />
      <stop
         id="stop4817"
         stop-color="#c83737"
         offset="1" />
    </linearGradient>
    <linearGradient
       y2="97.09442"
       y1="82.05234"
       x2="116.30762"
       x1="113.08673"
       id="linearGradient5155"
       gradientUnits="userSpaceOnUse">
      <stop
         id="stop4808"
         stop-color="#ffbc78"
         offset="0" />
      <stop
         id="stop4810"
         stop-color="#f60"
         offset="1" />
    </linearGradient>
    <linearGradient
       id="linearGradient5047">
      <stop
         id="stop4799"
         stop-color="#f9f9f9"
         offset="0" />
      <stop
         id="stop4801"
         stop-color="#cdf3fb"
         offset=".6846" />
      <stop
         id="stop4803"
         stop-color="#afd1d8"
         offset=".8423" />
      <stop
         id="stop4805"
         stop-color="#ceebf1"
         offset="1" />
    </linearGradient>
    <linearGradient
       id="linearGradient5164">
      <stop
         id="stop4792"
         stop-color="#a00"
         offset="0" />
      <stop
         id="stop4794"
         stop-color="#840000"
         offset=".5" />
      <stop
         id="stop4796"
         stop-color="#a00"
         offset="1" />
    </linearGradient>
    <linearGradient
       id="linearGradient5210">
      <stop
         id="stop4787"
         stop-color="#595fbc"
         offset="0" />
      <stop
         id="stop4789"
         stop-color="#2b306f"
         offset="1" />
    </linearGradient>
  </defs>
  <sodipodi:namedview
     inkscape:document-units="mm"
     id="base"
     pagecolor="#ffffff"
     bordercolor="#666666"
     borderopacity="1.0"
     inkscape:pageopacity="0.0"
     inkscape:pageshadow="2"
     inkscape:zoom="0.3300864"
     inkscape:cx="-153.70857"
     inkscape:cy="740.78616"
     inkscape:current-layer="layer1"
     showgrid="false"
     units="mm"
     inkscape:window-width="1871"
     inkscape:window-height="1056"
     inkscape:window-x="1649"
     inkscape:window-y="24"
     inkscape:window-maximized="1" />
  <metadata
     id="metadata4">
    <rdf:RDF>
      <cc:Work
         rdf:about="">
        <dc:format>image/svg+xml</dc:format>
        <dc:type
           rdf:resource="http://purl.org/dc/dcmitype/StillImage" />
        <dc:title></dc:title>
      </cc:Work>
    </rdf:RDF>
  </metadata>
  <g
     inkscape:label="Layer 1"
     inkscape:groupmode="layer"
     id="layer1">
    <path
       sodipodi:nodetypes="ccccsscssccccccssccs"
       style="fill:#ffffff;fill-opacity:1;fill-rule:nonzero;stroke:#808080;stroke-width:1.94362736;stroke-miterlimit:4;stroke-opacity:1;stroke-dasharray:none;display:inline;enable-background:new"
       d="m 49.912231,591.55163 c 6.8e-5,4.19691 1.65846,8.32856 4.874404,11.54457 l 40.534492,40.79107 c 2.949746,2.94975 6.674913,4.37365 10.518403,4.6179 1.38413,0.37612 2.85473,0.51302 4.36132,0.51302 l 118.51406,7e-5 c 9.09612,10e-6 16.41891,-7.32286 16.41905,-16.41898 l 0,-82.09516 c 0,-9.09612 -7.32293,-16.4189 -16.41898,-16.41891 l -118.51426,-6e-5 c -1.50639,2e-4 -2.97706,0.13689 -4.36119,0.51301 -3.84342,0.24397 -7.568589,1.66809 -10.518471,4.6179 l -40.533678,40.79147 c -3.216012,3.21608 -4.874473,7.34767 -4.874405,11.54471 z m 27.450598,0 c -6.7e-5,-6.80096 5.51327,-12.3143 12.314165,-12.31423 6.801098,0 12.314296,5.5132 12.314296,12.3143 7e-5,6.80089 -5.513266,12.31423 -12.31416,12.31423 -6.801098,-7e-5 -12.314233,-5.51334 -12.314301,-12.3143 z"
       id="path4739"
       inkscape:connector-curvature="0" />
    <path
       inkscape:connector-curvature="0"
       id="path4741"
       d="m 269.91223,591.55163 c 7e-5,4.19691 1.65846,8.32856 4.87441,11.54457 l 40.53449,40.79107 c 2.94974,2.94975 6.67491,4.37365 10.5184,4.6179 1.38413,0.37612 2.85473,0.51302 4.36132,0.51302 l 118.51406,7e-5 c 9.09612,10e-6 16.41891,-7.32286 16.41905,-16.41898 l 0,-82.09516 c 0,-9.09612 -7.32293,-16.4189 -16.41898,-16.41891 l -118.51426,-6e-5 c -1.50639,2e-4 -2.97706,0.13689 -4.36119,0.51301 -3.84342,0.24397 -7.56859,1.66809 -10.51847,4.6179 l -40.53368,40.79147 c -3.21601,3.21608 -4.87447,7.34766 -4.8744,11.54471 z m 27.4506,0 c -7e-5,-6.80096 5.51327,-12.3143 12.31416,-12.31423 6.8011,0 12.3143,5.5132 12.3143,12.3143 7e-5,6.80089 -5.51327,12.31423 -12.31416,12.31423 -6.8011,-7e-5 -12.31423,-5.51334 -12.3143,-12.3143 z"
       style="fill:#ffffff;fill-opacity:1;fill-rule:nonzero;stroke:#808080;stroke-width:1.94362736;stroke-miterlimit:4;stroke-opacity:1;stroke-dasharray:none;display:inline;enable-background:new"
       sodipodi:nodetypes="ccccsscssccccccssccs" />
    <path
       sodipodi:nodetypes="ccccsscssccccccssccs"
       style="fill:#ffffff;fill-opacity:1;fill-rule:nonzero;stroke:#808080;stroke-width:1.94362736;stroke-miterlimit:4;stroke-opacity:1;stroke-dasharray:none;display:inline;enable-background:new"
       d="m 499.91223,591.55163 c 7e-5,4.19691 1.65846,8.32856 4.87441,11.54457 l 40.53449,40.79107 c 2.94974,2.94975 6.67491,4.37365 10.5184,4.6179 1.38413,0.37612 2.85473,0.51302 4.36132,0.51302 l 118.51406,7e-5 c 9.09612,10e-6 16.41891,-7.32286 16.41905,-16.41898 l 0,-82.09516 c 0,-9.09612 -7.32293,-16.4189 -16.41898,-16.41891 l -118.51426,-6e-5 c -1.50639,2e-4 -2.97706,0.13689 -4.36119,0.51301 -3.84342,0.24397 -7.56859,1.66809 -10.51847,4.6179 l -40.53368,40.79147 c -3.21601,3.21608 -4.87447,7.34766 -4.8744,11.54471 z m 27.4506,0 c -7e-5,-6.80096 5.51327,-12.3143 12.31416,-12.31423 6.8011,0 12.3143,5.5132 12.3143,12.3143 7e-5,6.80089 -5.51327,12.31423 -12.31416,12.31423 -6.8011,-7e-5 -12.31423,-5.51334 -12.3143,-12.3143 z"
       id="path4743"
       inkscape:connector-curvature="0" />
    <path
       inkscape:connector-curvature="0"
       id="path4745"
       d="m 49.912231,706.55163 c 6.8e-5,4.19691 1.65846,8.32856 4.874404,11.54457 l 40.534492,40.79107 c 2.949746,2.94975 6.674913,4.37365 10.518403,4.6179 1.38413,0.37612 2.85473,0.51302 4.36132,0.51302 l 118.51406,7e-5 c 9.09612,10e-6 16.41891,-7.32286 16.41905,-16.41898 l 0,-82.09516 c 0,-9.09612 -7.32293,-16.4189 -16.41898,-16.41891 l -118.51426,-6e-5 c -1.50639,2e-4 -2.97706,0.13689 -4.36119,0.51301 -3.84342,0.24397 -7.568589,1.66809 -10.518471,4.6179 l -40.533678,40.79147 c -3.216012,3.21608 -4.874473,7.34767 -4.874405,11.54471 z m 27.450598,0 c -6.7e-5,-6.80096 5.51327,-12.3143 12.314165,-12.31423 6.801098,0 12.314296,5.5132 12.314296,12.3143 7e-5,6.80089 -5.513266,12.31423 -12.31416,12.31423 -6.801098,-7e-5 -12.314233,-5.51334 -12.314301,-12.3143 z"
       style="fill:#ffffff;fill-opacity:1;fill-rule:nonzero;stroke:#808080;stroke-width:1.94362736;stroke-miterlimit:4;stroke-opacity:1;stroke-dasharray:none;display:inline;enable-background:new"
       sodipodi:nodetypes="ccccsscssccccccssccs" />
    <path
       sodipodi:nodetypes="ccccsscssccccccssccs"
       style="fill:#ffffff;fill-opacity:1;fill-rule:nonzero;stroke:#808080;stroke-width:1.94362736;stroke-miterlimit:4;stroke-opacity:1;stroke-dasharray:none;display:inline;enable-background:new"
       d="m 269.91223,706.55163 c 7e-5,4.19691 1.65846,8.32856 4.87441,11.54457 l 40.53449,40.79107 c 2.94974,2.94975 6.67491,4.37365 10.5184,4.6179 1.38413,0.37612 2.85473,0.51302 4.36132,0.51302 l 118.51406,7e-5 c 9.09612,10e-6 16.41891,-7.32286 16.41905,-16.41898 l 0,-82.09516 c 0,-9.09612 -7.32293,-16.4189 -16.41898,-16.41891 l -118.51426,-6e-5 c -1.50639,2e-4 -2.97706,0.13689 -4.36119,0.51301 -3.84342,0.24397 -7.56859,1.66809 -10.51847,4.6179 l -40.53368,40.79147 c -3.21601,3.21608 -4.87447,7.34766 -4.8744,11.54471 z m 27.4506,0 c -7e-5,-6.80096 5.51327,-12.3143 12.31416,-12.31423 6.8011,0 12.3143,5.5132 12.3143,12.3143 7e-5,6.80089 -5.51327,12.31423 -12.31416,12.31423 -6.8011,-7e-5 -12.31423,-5.51334 -12.3143,-12.3143 z"
       id="path4747"
       inkscape:connector-curvature="0" />
    <path
       inkscape:connector-curvature="0"
       id="path4749"
       d="m 499.91223,706.55163 c 7e-5,4.19691 1.65846,8.32856 4.87441,11.54457 l 40.53449,40.79107 c 2.94974,2.94975 6.67491,4.37365 10.5184,4.6179 1.38413,0.37612 2.85473,0.51302 4.36132,0.51302 l 118.51406,7e-5 c 9.09612,10e-6 16.41891,-7.32286 16.41905,-16.41898 l 0,-82.09516 c 0,-9.09612 -7.32293,-16.4189 -16.41898,-16.41891 l -118.51426,-6e-5 c -1.50639,2e-4 -2.97706,0.13689 -4.36119,0.51301 -3.84342,0.24397 -7.56859,1.66809 -10.51847,4.6179 l -40.53368,40.79147 c -3.21601,3.21608 -4.87447,7.34766 -4.8744,11.54471 z m 27.4506,0 c -7e-5,-6.80096 5.51327,-12.3143 12.31416,-12.31423 6.8011,0 12.3143,5.5132 12.3143,12.3143 7e-5,6.80089 -5.51327,12.31423 -12.31416,12.31423 -6.8011,-7e-5 -12.31423,-5.51334 -12.3143,-12.3143 z"
       style="fill:#ffffff;fill-opacity:1;fill-rule:nonzero;stroke:#808080;stroke-width:1.94362736;stroke-miterlimit:4;stroke-opacity:1;stroke-dasharray:none;display:inline;enable-background:new"
       sodipodi:nodetypes="ccccsscssccccccssccs" />
    <path
       sodipodi:nodetypes="ccccsscssccccccssccs"
       style="fill:#ffffff;fill-opacity:1;fill-rule:nonzero;stroke:#808080;stroke-width:1.94362736;stroke-miterlimit:4;stroke-opacity:1;stroke-dasharray:none;display:inline;enable-background:new"
       d="m 49.912231,821.55163 c 6.8e-5,4.19691 1.65846,8.32856 4.874404,11.54457 l 40.534492,40.79107 c 2.949746,2.94975 6.674913,4.37365 10.518403,4.6179 1.38413,0.37612 2.85473,0.51302 4.36132,0.51302 l 118.51406,7e-5 c 9.09612,10e-6 16.41891,-7.32286 16.41905,-16.41898 l 0,-82.09516 c 0,-9.09612 -7.32293,-16.4189 -16.41898,-16.41891 l -118.51426,-6e-5 c -1.50639,2e-4 -2.97706,0.13689 -4.36119,0.51301 -3.84342,0.24397 -7.568589,1.66809 -10.518471,4.6179 l -40.533678,40.79147 c -3.216012,3.21608 -4.874473,7.34767 -4.874405,11.54471 z m 27.450598,0 c -6.7e-5,-6.80096 5.51327,-12.3143 12.314165,-12.31423 6.801098,0 12.314296,5.5132 12.314296,12.3143 7e-5,6.80089 -5.513266,12.31423 -12.31416,12.31423 -6.801098,-7e-5 -12.314233,-5.51334 -12.314301,-12.3143 z"
       id="path4751"
       inkscape:connector-curvature="0" />
    <path
       inkscape:connector-curvature="0"
       id="path4753"
       d="m 269.91223,821.55163 c 7e-5,4.19691 1.65846,8.32856 4.87441,11.54457 l 40.53449,40.79107 c 2.94974,2.94975 6.67491,4.37365 10.5184,4.6179 1.38413,0.37612 2.85473,0.51302 4.36132,0.51302 l 118.51406,7e-5 c 9.09612,10e-6 16.41891,-7.32286 16.41905,-16.41898 l 0,-82.09516 c 0,-9.09612 -7.32293,-16.4189 -16.41898,-16.41891 l -118.51426,-6e-5 c -1.50639,2e-4 -2.97706,0.13689 -4.36119,0.51301 -3.84342,0.24397 -7.56859,1.66809 -10.51847,4.6179 l -40.53368,40.79147 c -3.21601,3.21608 -4.87447,7.34766 -4.8744,11.54471 z m 27.4506,0 c -7e-5,-6.80096 5.51327,-12.3143 12.31416,-12.31423 6.8011,0 12.3143,5.5132 12.3143,12.3143 7e-5,6.80089 -5.51327,12.31423 -12.31416,12.31423 -6.8011,-7e-5 -12.31423,-5.51334 -12.3143,-12.3143 z"
       style="fill:#ffffff;fill-opacity:1;fill-rule:nonzero;stroke:#808080;stroke-width:1.94362736;stroke-miterlimit:4;stroke-opacity:1;stroke-dasharray:none;display:inline;enable-background:new"
       sodipodi:nodetypes="ccccsscssccccccssccs" />
    <path
       sodipodi:nodetypes="ccccsscssccccccssccs"
       style="fill:#ffffff;fill-opacity:1;fill-rule:nonzero;stroke:#808080;stroke-width:1.94362736;stroke-miterlimit:4;stroke-opacity:1;stroke-dasharray:none;display:inline;enable-background:new"
       d="m 499.91223,821.55163 c 7e-5,4.19691 1.65846,8.32856 4.87441,11.54457 l 40.53449,40.79107 c 2.94974,2.94975 6.67491,4.37365 10.5184,4.6179 1.38413,0.37612 2.85473,0.51302 4.36132,0.51302 l 118.51406,7e-5 c 9.09612,10e-6 16.41891,-7.32286 16.41905,-16.41898 l 0,-82.09516 c 0,-9.09612 -7.32293,-16.4189 -16.41898,-16.41891 l -118.51426,-6e-5 c -1.50639,2e-4 -2.97706,0.13689 -4.36119,0.51301 -3.84342,0.24397 -7.56859,1.66809 -10.51847,4.6179 l -40.53368,40.79147 c -3.21601,3.21608 -4.87447,7.34766 -4.8744,11.54471 z m 27.4506,0 c -7e-5,-6.80096 5.51327,-12.3143 12.31416,-12.31423 6.8011,0 12.3143,5.5132 12.3143,12.3143 7e-5,6.80089 -5.51327,12.31423 -12.31416,12.31423 -6.8011,-7e-5 -12.31423,-5.51334 -12.3143,-12.3143 z"
       id="path4755"
       inkscape:connector-curvature="0" />
    <path
       inkscape:connector-curvature="0"
       id="path4757"
       d="m 49.912231,936.55163 c 6.8e-5,4.19691 1.65846,8.32856 4.874404,11.54457 l 40.534492,40.79107 c 2.949746,2.94975 6.674913,4.37365 10.518403,4.6179 1.38413,0.37612 2.85473,0.51302 4.36132,0.51302 l 118.51406,7e-5 c 9.09612,10e-6 16.41891,-7.32286 16.41905,-16.41898 l 0,-82.09516 c 0,-9.09612 -7.32293,-16.4189 -16.41898,-16.41891 l -118.51426,-6e-5 c -1.50639,2e-4 -2.97706,0.13689 -4.36119,0.51301 -3.84342,0.24397 -7.568589,1.66809 -10.518471,4.6179 l -40.533678,40.79147 c -3.216012,3.21608 -4.874473,7.34767 -4.874405,11.54471 z m 27.450598,0 c -6.7e-5,-6.80096 5.51327,-12.3143 12.314165,-12.31423 6.801098,0 12.314296,5.5132 12.314296,12.3143 7e-5,6.80089 -5.513266,12.31423 -12.31416,12.31423 -6.801098,-7e-5 -12.314233,-5.51334 -12.314301,-12.3143 z"
       style="fill:#ffffff;fill-opacity:1;fill-rule:nonzero;stroke:#808080;stroke-width:1.94362736;stroke-miterlimit:4;stroke-opacity:1;stroke-dasharray:none;display:inline;enable-background:new"
       sodipodi:nodetypes="ccccsscssccccccssccs" />
    <path
       sodipodi:nodetypes="ccccsscssccccccssccs"
       style="fill:#ffffff;fill-opacity:1;fill-rule:nonzero;stroke:#808080;stroke-width:1.94362736;stroke-miterlimit:4;stroke-opacity:1;stroke-dasharray:none;display:inline;enable-background:new"
       d="m 269.91223,936.55163 c 7e-5,4.19691 1.65846,8.32856 4.87441,11.54457 l 40.53449,40.79107 c 2.94974,2.94975 6.67491,4.37365 10.5184,4.6179 1.38413,0.37612 2.85473,0.51302 4.36132,0.51302 l 118.51406,7e-5 c 9.09612,10e-6 16.41891,-7.32286 16.41905,-16.41898 l 0,-82.09516 c 0,-9.09612 -7.32293,-16.4189 -16.41898,-16.41891 l -118.51426,-6e-5 c -1.50639,2e-4 -2.97706,0.13689 -4.36119,0.51301 -3.84342,0.24397 -7.56859,1.66809 -10.51847,4.6179 l -40.53368,40.79147 c -3.21601,3.21608 -4.87447,7.34766 -4.8744,11.54471 z m 27.4506,0 c -7e-5,-6.80096 5.51327,-12.3143 12.31416,-12.31423 6.8011,0 12.3143,5.5132 12.3143,12.3143 7e-5,6.80089 -5.51327,12.31423 -12.31416,12.31423 -6.8011,-7e-5 -12.31423,-5.51334 -12.3143,-12.3143 z"
       id="path4759"
       inkscape:connector-curvature="0" />
    <path
       inkscape:connector-curvature="0"
       id="path4761"
       d="m 499.91223,936.55163 c 7e-5,4.19691 1.65846,8.32856 4.87441,11.54457 l 40.53449,40.79107 c 2.94974,2.94975 6.67491,4.37365 10.5184,4.6179 1.38413,0.37612 2.85473,0.51302 4.36132,0.51302 l 118.51406,7e-5 c 9.09612,10e-6 16.41891,-7.32286 16.41905,-16.41898 l 0,-82.09516 c 0,-9.09612 -7.32293,-16.4189 -16.41898,-16.41891 l -118.51426,-6e-5 c -1.50639,2e-4 -2.97706,0.13689 -4.36119,0.51301 -3.84342,0.24397 -7.56859,1.66809 -10.51847,4.6179 l -40.53368,40.79147 c -3.21601,3.21608 -4.87447,7.34766 -4.8744,11.54471 z m 27.4506,0 c -7e-5,-6.80096 5.51327,-12.3143 12.31416,-12.31423 6.8011,0 12.3143,5.5132 12.3143,12.3143 7e-5,6.80089 -5.51327,12.31423 -12.31416,12.31423 -6.8011,-7e-5 -12.31423,-5.51334 -12.3143,-12.3143 z"
       style="fill:#ffffff;fill-opacity:1;fill-rule:nonzero;stroke:#808080;stroke-width:1.94362736;stroke-miterlimit:4;stroke-opacity:1;stroke-dasharray:none;display:inline;enable-background:new"
       sodipodi:nodetypes="ccccsscssccccccssccs" />
    <g
       id="g4837"
       transform="matrix(0,-1.5425695,1.5425695,0,113.39329,466.70765)">
      <path
         id="path4839"
         d="M 65.44931,172.25392 C 63.68155,157.75823 53.52898,152.72491 50.4233,155.63691 c -3.60723,3.38228 6.36395,9.8995 -0.88389,11.31371 -9.54594,-6.71752 -30.83329,-18.10607 -31.8198,-0.35355 -1.09446,19.69502 18.38477,27.93071 30.05203,25.10228 12.41251,-3.00909 16.97057,-1.41421 16.97057,-1.41421 z"
         inkscape:connector-curvature="0"
         style="fill:url(#radialGradient5216)" />
      <path
         id="path4841"
         d="m 246,214.86218 c 0,52.19091 -42.80909,81 -95,81 -52.19091,0 -94,-28.80909 -94,-81 0,-52.19091 42.30909,-94.5 94.5,-94.5 52.19091,0 94.5,42.30909 94.5,94.5 z"
         inkscape:connector-curvature="0"
         style="fill:url(#radialGradient5161)" />
      <path
         id="path4843"
         d="m 202,91.86218 c 0,29.27109 -15.98019,47.05628 -53,47.5 -37.01981,0.44372 -53,-18.22891 -53,-47.5 0,-29.27109 23.72891,-50 53,-50 29.27109,0 53,20.72891 53,50 z"
         inkscape:connector-curvature="0"
         style="fill:url(#radialGradient5158)" />
      <path
         id="path4845"
         d="m 128.03945,75.96689 c -9.25305,-1.13985 -15.51192,0.15422 -23.33826,2.505 -3.8442,1.15468 -9.90404,4.15181 -13.75151,5.29553 -4.57476,1.35992 -7.79819,1.18773 -12.24805,2.91297 -1.28142,0.49682 -2.4327,1.15523 -5.90782,3.82093 2.26846,2.0268 6.40806,1.61971 9.37021,2.4882 6.30879,1.84971 7.98578,2.51577 14.41482,3.8904 6.1026,1.30484 11.34409,2.52742 17.54323,3.24519 5.44591,0.63055 10.14149,3.94612 14.74179,0.96405 8.52249,-4.08846 8.57321,-21.50479 -0.82441,-25.12227 z"
         inkscape:connector-curvature="0"
         style="fill:url(#linearGradient5155)" />
      <path
         id="path4847"
         transform="matrix(1,0,-0.2297,1,-136.17047,-340.76256)"
         d="m 352.66952,407.4808 a 3.97748,5.65685 0 1 1 -7.95495,0 3.97748,5.65685 0 1 1 7.95495,0 z"
         inkscape:connector-curvature="0"
         style="fill:#333333" />
      <path
         id="path4849"
         transform="matrix(1,0,-0.13218,1,-176.90233,-343.41421)"
         d="m 374.94336,410.66278 a 4.86136,6.18718 0 1 1 -9.72272,0 4.86136,6.18718 0 1 1 9.72272,0 z"
         inkscape:connector-curvature="0"
         style="fill:#333333" />
      <path
         id="path4851"
         transform="matrix(0.69648,-0.2616,0.18877,0.96518,-211.44015,-239.19392)"
         d="m 335.16863,446.37167 a 1.59099,2.12132 0 1 1 -3.18198,0 1.59099,2.12132 0 1 1 3.18198,0 z"
         inkscape:connector-curvature="0"
         style="fill:#999999" />
      <path
         id="path4853"
         transform="translate(-230.12132,-336.87348)"
         d="m 391.03004,445.13425 a 2.65165,2.65165 0 1 1 -5.3033,0 2.65165,2.65165 0 1 1 5.3033,0 z"
         inkscape:connector-curvature="0"
         style="fill:#999999" />
      <path
         id="path4855"
         transform="matrix(0.99527,0,0,1.10024,-228.4745,-385.33255)"
         d="m 385.37321,453.44275 a 3.535535,3.1819845 0 1 1 -7.07107,0 3.535535,3.1819845 0 1 1 7.07107,0 z"
         inkscape:connector-curvature="0"
         style="fill:#999999" />
      <path
         id="path4857"
         transform="matrix(0.99507,-0.09915,0.09915,0.99507,-272.12834,-309.57098)"
         d="m 338.35059,454.68018 a 1.76777,2.65165 0 1 1 -3.53553,0 1.76777,2.65165 0 1 1 3.53553,0 z"
         inkscape:connector-curvature="0"
         style="fill:#999999" />
      <path
         id="path4859"
         transform="matrix(0.8788,-0.12597,0.16553,1.05528,-267.59965,-325.29384)"
         d="m 350.37142,458.2157 a 3.35876,3.35876 0 1 1 -6.71751,0 3.35876,3.35876 0 1 1 6.71751,0 z"
         inkscape:connector-curvature="0"
         style="fill:#999999" />
      <path
         id="path4861"
         transform="matrix(0.31858,-0.95153,0.98563,0.30756,-423.99893,316.76526)"
         d="m 363.09933,458.74603 a 4.24264,3.88909 0 1 1 -8.48528,0 4.24264,3.88909 0 1 1 8.48528,0 z"
         inkscape:connector-curvature="0"
         style="fill:#999999" />
      <path
         id="path4863"
         transform="matrix(0.80375,0,0,0.88067,-136.80312,-300.89297)"
         d="m 375.12015,458.56927 a 2.2981,2.2981 0 1 1 -4.5962,0 2.2981,2.2981 0 1 1 4.5962,0 z"
         inkscape:connector-curvature="0"
         style="fill:#999999" />
      <path
         id="path4865"
         transform="matrix(-0.20417,-0.97593,0.93713,-0.17223,-236.01438,540.6394)"
         d="m 357.08893,458.65765 a 4.86136,4.33103 0 1 1 -9.72272,0 4.86136,4.33103 0 1 1 9.72272,0 z"
         inkscape:connector-curvature="0"
         style="fill:#999999" />
      <path
         id="path4867"
         transform="matrix(0.11093,-0.99383,0.99383,0.11093,-362.80627,417.15685)"
         d="m 357.08893,458.65765 a 4.86136,4.33103 0 1 1 -9.72272,0 4.86136,4.33103 0 1 1 9.72272,0 z"
         inkscape:connector-curvature="0"
         style="fill:#999999" />
      <path
         id="path4869"
         transform="translate(-233.5,-336.5)"
         d="m 360.5,502.11218 a 9.5,8.75 0 1 1 -19,0 9.5,8.75 0 1 1 19,0 z"
         inkscape:connector-curvature="0"
         style="fill:#008000" />
      <path
         id="path4871"
         transform="matrix(0.88007,-0.46972,0.4109,1.00606,-410.47603,-145.41838)"
         d="m 360.5,502.11218 a 9.5,8.75 0 1 1 -19,0 9.5,8.75 0 1 1 19,0 z"
         inkscape:connector-curvature="0"
         style="fill:#008000" />
      <path
         id="path4873"
         transform="matrix(0.82062,0,0,1.00524,-184.28704,-278.88246)"
         d="m 360.5,502.11218 a 9.5,8.75 0 1 1 -19,0 9.5,8.75 0 1 1 19,0 z"
         inkscape:connector-curvature="0"
         style="fill:#008000" />
      <path
         id="path4875"
         transform="matrix(0.72348,0,0,0.78549,-141.69202,-143.04405)"
         d="m 360.5,502.11218 a 9.5,8.75 0 1 1 -19,0 9.5,8.75 0 1 1 19,0 z"
         inkscape:connector-curvature="0"
         style="fill:#008000" />
      <path
         id="path4877"
         d="m 136.5,189.5625 c 11.20846,4.7324 19.47677,6.12569 23.28125,-0.59375 2.42973,-14.45683 -1.64588,-22.9859 -8.78125,-34.75 -3.62801,-0.93953 -7.558,-13.98842 -6.94026,-16.96583 0.61774,-2.97741 4.67272,-0.75984 5.36275,-3.01364 -0.22712,-3.97132 -5.89786,-8.50044 -10.69058,-8.57504 -4.79272,-0.0746 -7.02618,1.56287 -10.26316,3.36701 -4.11381,2.29284 -10.90989,4.52264 -12.96079,-0.65165 -3.11659,-7.86298 -10.52868,-10.48968 -14.03921,-10.6296 -0.23404,-0.009 -0.44175,0.0226 -0.65625,0.0625 -2.0851,0.38832 -4.26228,3.62698 -3.83566,6.55306 0.27558,1.8901 -0.40553,4.1084 -0.66434,5.57194 -0.36497,2.06387 1.08495,4.69469 -3.43596,5.0782 -3.05802,-0.43937 -5.33506,5.67823 -5.03279,8.8593 5.42686,2.87325 15.51489,-2.64914 23.0625,-1.875 10.03514,1.0293 17.31512,8.27517 18.01072,3.73039 1.50814,-9.85351 11.71473,-12.16959 8.79864,-5.0759 -5.18809,12.62057 2.72006,39.80409 -1.21561,48.90801 z"
         inkscape:connector-curvature="0"
         style="fill:url(#linearGradient5188)" />
      <path
         id="path4879"
         d="m 130.14958,128.23652 c -6.8528,-2.52291 -11.10161,-2.83837 -15.9099,-1.94454 -6.01162,1.11753 -8.46884,8.85728 -10.42982,16.26346 -3.27186,12.35709 -26.96295,10.33288 -28.8146,22.98097 -0.85048,5.80938 5.09835,13.45471 10.96015,13.78858 12.64617,0.72029 20.10411,-16.16182 26.87006,-26.87006 3.00651,-4.7583 3.54543,-12.58303 7.07106,-16.97056 2.78567,-3.46667 10.25305,-7.24785 10.25305,-7.24785 z"
         inkscape:connector-curvature="0"
         style="fill:url(#linearGradient5178)" />
      <path
         id="path4881"
         d="m 136.51355,133.7166 c 4.26613,-2.06022 9.45263,2.08728 14.14213,1.41422 15.22882,-2.18573 32.04356,-6.30485 42.77996,-17.32412 1.40537,-1.44239 1.63496,-5.9884 3.62132,-5.65685 10.60557,1.77021 2.38673,9.38643 2.87132,14.24568 0.65929,6.61108 12.91941,8.68835 11.72793,14.79594 -2.14412,10.99083 -14.21601,6.47043 -27.77288,6.54336 -5.28021,0.0284 -18.09189,12.54328 -24.03388,12.18369 -7.64025,-0.46237 -9.78756,-7.55593 -14.85062,-7.99392 -8.299,-0.71792 -11.65884,2.701 -17.32412,-6.89429 -1.99447,-3.37802 5.30632,-9.60777 8.83884,-11.31371 z"
         inkscape:connector-curvature="0"
         style="fill:url(#linearGradient5172)" />
      <path
         id="path4883"
         d="m 133.5,25.86218 c 26.5,-13 66.5,-13.5 76,7 9.5,20.5 13.5,33.5 14,46 0.52759,13.18983 9,25 9,25 l -6,3.5 c 0,0 -3.5,2 -8.5,-13 -6.49038,-19.47113 -10.5,-16 -10.5,-16"
         inkscape:connector-curvature="0"
         style="fill:url(#radialGradient5198)" />
      <path
         id="path4885"
         transform="matrix(0.76162,0,0,0.76162,-119.33542,-241.73537)"
         d="m 471,473.86218 -7.47525,-1.04345 -4.21369,6.01832 -5.43428,-5.23801 -6.94643,2.39217 -1.3176,-7.43183 -7.02586,-2.1477 3.30236,-6.78694 -4.42165,-5.86722 6.66093,-3.54967 -0.12853,-7.34567 7.47525,1.04345 4.21369,-6.01831 5.43428,5.23801 6.94643,-2.39217 1.3176,7.43182 7.02586,2.1477 -3.30236,6.78695 4.42165,5.86722 -6.66093,3.54967 z"
         inkscape:connector-curvature="0"
         style="fill:#f9f9f9" />
      <path
         id="path4887"
         d="m 139.5,26.36218 c -8,-5 -16,-6 -16,0.5 0,6.5 -6,6.5 -7,9.5 -1,3 -17,13.5 6.5,15 23.5,1.5 13.5,-7 29,10 15.5,17 15,34 31,34.5 16,0.5 12.6172,14.33105 21.5,11 8,-3 6.5,-3.5 6,-11.5 -0.5,-8 1.5,-6.5 1.5,-9.5 0,-3 -3.76037,-3.02074 -14,-23.5 -7,-14 -19.52496,-18.91747 -34.5,-28 -5.21847,-3.16506 -24,-8 -24,-8 z"
         inkscape:connector-curvature="0"
         style="fill:url(#radialGradient5206)" />
      <path
         id="path4889"
         d="m 228.14453,190.98704 c 0,0 -5.54073,-1.23223 -7.48528,5.30852 -1.94455,6.54075 0.5358,16.66006 10.25305,16.97056 9.71725,0.3105 9.45127,-20.7028 4.9335,-25.74874 -4.51777,-5.04594 -10.62106,-0.66371 -13.06523,-6.77818 -2.44417,-6.11447 -1.30689,-14.1541 -5.16942,-14.72424 -3.86253,-0.57014 -4.5993,2.02883 -6.44966,9.1926 -1.08692,4.20808 -6.19693,5.58328 -7.24945,13.39713 -1.05252,7.81385 -4.68742,22.18656 18.3382,20.06523"
         inkscape:connector-curvature="0"
         style="fill:url(#radialGradient5224)" />
    </g>
  </g>
</svg>
